<svg version="1.1" id="Layer_1" xmlns="http://www.w3.org/2000/svg" xmlns:xlink="http://www.w3.org/1999/xlink" x="0px" y="0px"
	 width="100%" viewBox="0 0 1024 1024" enable-background="new 0 0 1024 1024" xml:space="preserve">
<path fill="#001319" opacity="1.000000" stroke="none" 
	d="
M573.000000,1025.000000 
	C382.000000,1025.000000 191.500000,1025.000000 1.000000,1025.000000 
	C1.000000,683.666687 1.000000,342.333344 1.000000,1.000000 
	C342.333344,1.000000 683.666687,1.000000 1025.000000,1.000000 
	C1025.000000,342.333344 1025.000000,683.666687 1025.000000,1025.000000 
	C874.500000,1025.000000 724.000000,1025.000000 573.000000,1025.000000 
M303.077606,203.023804 
	C293.052979,203.071411 283.028381,203.119034 272.075439,203.026001 
	C263.385437,203.073013 254.695419,203.120026 245.076553,203.026749 
	C236.052658,203.073471 227.028763,203.120209 217.076767,203.028290 
	C211.486008,203.028290 205.895264,203.028290 200.323669,203.028290 
	C200.323669,268.331970 200.323669,332.980865 200.323669,397.833466 
	C210.097580,397.833466 219.551224,397.833466 229.933273,397.964722 
	C238.290680,397.920929 246.648087,397.877136 255.933792,397.964905 
	C268.625153,397.920807 281.316528,397.876678 294.936310,397.961853 
	C321.259094,397.961853 347.581879,397.961853 374.913696,397.961853 
	C362.660278,380.773743 352.399750,363.392365 335.160736,351.946747 
	C321.407532,342.815460 306.643768,336.430481 289.208923,334.769928 
	C280.953735,334.381714 272.698517,333.993469 264.307434,333.598877 
	C264.307434,311.429413 264.307434,289.392639 264.307434,266.833282 
	C268.409058,266.833282 272.206390,266.833282 276.932343,266.966064 
	C286.623627,266.921783 296.314911,266.877502 306.934296,266.965637 
	C318.625031,266.921600 330.315765,266.877594 342.934479,266.966766 
	C354.625397,266.922272 366.316284,266.877777 378.934937,266.967743 
	C395.625275,266.922913 412.315582,266.878113 429.933716,266.968842 
	C445.290680,266.923615 460.647614,266.878387 476.932556,266.969635 
	C492.957458,266.923981 508.982361,266.878326 525.934631,266.969727 
	C555.264282,266.969727 584.593933,266.969727 615.041992,266.969727 
	C608.159424,257.498993 602.339172,248.635071 595.664673,240.469376 
	C577.181946,217.857330 553.309448,205.279739 523.099915,203.126160 
	C506.734833,203.139771 490.369751,203.153381 473.077087,203.019897 
	C456.720001,203.068848 440.362946,203.117783 423.077789,203.020676 
	C407.720551,203.069260 392.363342,203.117859 376.077881,203.021408 
	C363.720764,203.069855 351.363617,203.118301 338.078064,203.022446 
	C326.720764,203.070511 315.363495,203.118576 303.077606,203.023804 
M563.860718,523.393311 
	C557.187500,537.267395 553.983887,551.907898 553.989868,567.297241 
	C554.014099,629.293518 553.999878,691.289856 553.999878,753.286133 
	C553.999878,755.070435 553.999878,756.854797 553.999878,758.774170 
	C525.826355,758.774170 498.090424,758.774170 469.882721,758.774170 
	C469.882721,617.359619 469.882721,476.169952 469.882721,334.157349 
	C463.774994,338.408478 458.407104,342.232697 452.951538,345.927429 
	C420.936127,367.609558 405.797363,397.713379 405.888153,436.420288 
	C406.185547,563.245361 405.999847,690.071533 405.999847,816.897278 
	C405.999847,818.837891 405.999847,820.778503 405.999847,822.738403 
	C476.916473,822.738403 547.317383,822.738403 617.567383,822.738403 
	C617.567383,705.518311 617.567383,588.560486 617.567383,471.714996 
	C594.926270,483.923492 575.391907,499.018066 563.860718,523.393311 
M563.500000,333.999603 
	C547.419189,333.999603 531.338379,333.999603 514.036438,333.999603 
	C522.611755,343.892273 530.424072,352.872589 538.201355,361.883148 
	C559.151855,386.155609 585.654663,398.064606 617.711243,398.025574 
	C685.529846,397.942932 753.348572,398.000397 821.167297,398.000397 
	C823.076965,398.000397 824.986694,398.000397 826.762390,398.000397 
	C826.762390,332.618927 826.762390,268.019287 826.762390,203.363449 
	C771.699280,203.363449 716.874817,203.363449 662.105835,203.363449 
	C684.545227,242.401443 715.203125,268.206085 762.691650,267.016327 
	C762.691650,289.606018 762.691650,311.663391 762.691650,333.999603 
	C696.422668,333.999603 630.461365,333.999603 563.500000,333.999603 
z"/>
<path fill="#FFFFFF" opacity="1.000000" stroke="none" 
	d="
M563.989624,523.039795 
	C575.391907,499.018066 594.926270,483.923492 617.567383,471.714996 
	C617.567383,588.560486 617.567383,705.518311 617.567383,822.738403 
	C547.317383,822.738403 476.916473,822.738403 405.999847,822.738403 
	C405.999847,820.778503 405.999847,818.837891 405.999847,816.897278 
	C405.999847,690.071533 406.185547,563.245361 405.888153,436.420288 
	C405.797363,397.713379 420.936127,367.609558 452.951538,345.927429 
	C458.407104,342.232697 463.774994,338.408478 469.882721,334.157349 
	C469.882721,476.169952 469.882721,617.359619 469.882721,758.774170 
	C498.090424,758.774170 525.826355,758.774170 553.999878,758.774170 
	C553.999878,756.854797 553.999878,755.070435 553.999878,753.286133 
	C553.999878,691.289856 554.014099,629.293518 553.989868,567.297241 
	C553.983887,551.907898 557.187500,537.267395 563.989624,523.039795 
z"/>
<path fill="#40FFC9" opacity="1.000000" stroke="none" 
	d="
M564.000000,333.999603 
	C630.461365,333.999603 696.422668,333.999603 762.691650,333.999603 
	C762.691650,311.663391 762.691650,289.606018 762.691650,267.016327 
	C715.203125,268.206085 684.545227,242.401443 662.105835,203.363449 
	C716.874817,203.363449 771.699280,203.363449 826.762390,203.363449 
	C826.762390,268.019287 826.762390,332.618927 826.762390,398.000397 
	C824.986694,398.000397 823.076965,398.000397 821.167297,398.000397 
	C753.348572,398.000397 685.529846,397.942932 617.711243,398.025574 
	C585.654663,398.064606 559.151855,386.155609 538.201355,361.883148 
	C530.424072,352.872589 522.611755,343.892273 514.036438,333.999603 
	C531.338379,333.999603 547.419189,333.999603 564.000000,333.999603 
z"/>
<path fill="#0BA5D4" opacity="1.000000" stroke="none" 
	d="
M276.003754,266.833282 
	C272.206390,266.833282 268.409058,266.833282 264.307434,266.833282 
	C264.307434,289.392639 264.307434,311.429413 264.307434,333.598877 
	C272.698517,333.993469 280.953735,334.381714 289.605194,335.316864 
	C291.336945,356.520050 292.672424,377.176331 294.007904,397.832581 
	C281.316528,397.876678 268.625153,397.920807 255.467987,397.465210 
	C254.628891,387.105499 254.352554,377.240631 253.855240,367.386871 
	C253.350464,357.385620 252.608749,347.396515 252.005768,337.399994 
	C251.451141,328.204895 250.952515,319.006470 250.412079,309.810486 
	C249.616058,296.265503 248.828812,282.719849 247.991791,269.177368 
	C247.403549,259.659729 246.439362,250.154938 246.182251,240.629852 
	C245.845367,228.149734 246.039612,215.655304 246.005402,203.167023 
	C254.695419,203.120026 263.385437,203.073013 272.538452,203.530273 
	C274.002228,224.967468 275.002991,245.900375 276.003754,266.833282 
z"/>
<path fill="#07A1D0" opacity="1.000000" stroke="none" 
	d="
M245.540985,203.096893 
	C246.039612,215.655304 245.845367,228.149734 246.182251,240.629852 
	C246.439362,250.154938 247.403549,259.659729 247.991791,269.177368 
	C248.828812,282.719849 249.616058,296.265503 250.412079,309.810486 
	C250.952515,319.006470 251.451141,328.204895 252.005768,337.399994 
	C252.608749,347.396515 253.350464,357.385620 253.855240,367.386871 
	C254.352554,377.240631 254.628891,387.105499 255.003845,397.399414 
	C246.648087,397.877136 238.290680,397.920929 229.465179,397.481812 
	C228.664719,393.383881 228.154144,389.774841 228.032303,386.152740 
	C227.610489,373.613373 227.602951,361.053650 226.894638,348.532379 
	C226.360825,339.096191 224.834961,329.720551 224.038544,320.293640 
	C222.915070,306.995483 221.997375,293.678864 221.112610,280.362061 
	C220.696945,274.105682 220.413803,267.832031 220.351822,261.563416 
	C220.306122,256.943054 221.096420,252.298080 220.853317,247.699005 
	C220.068222,232.846298 218.977692,218.009735 218.004868,203.166946 
	C227.028763,203.120209 236.052658,203.073471 245.540985,203.096893 
z"/>
<path fill="#049DCC" opacity="1.000000" stroke="none" 
	d="
M217.540817,203.097626 
	C218.977692,218.009735 220.068222,232.846298 220.853317,247.699005 
	C221.096420,252.298080 220.306122,256.943054 220.351822,261.563416 
	C220.413803,267.832031 220.696945,274.105682 221.112610,280.362061 
	C221.997375,293.678864 222.915070,306.995483 224.038544,320.293640 
	C224.834961,329.720551 226.360825,339.096191 226.894638,348.532379 
	C227.602951,361.053650 227.610489,373.613373 228.032303,386.152740 
	C228.154144,389.774841 228.664719,393.383881 229.000977,397.416199 
	C219.551224,397.833466 210.097580,397.833466 200.323669,397.833466 
	C200.323669,332.980865 200.323669,268.331970 200.323669,203.028290 
	C205.895264,203.028290 211.486008,203.028290 217.540817,203.097626 
z"/>
<path fill="#2BC6F6" opacity="1.000000" stroke="none" 
	d="
M524.015259,203.353806 
	C553.309448,205.279739 577.181946,217.857330 595.664673,240.469376 
	C602.339172,248.635071 608.159424,257.498993 615.041992,266.969727 
	C584.593933,266.969727 555.264282,266.969727 525.525085,266.534851 
	C527.452332,261.769806 525.482849,257.511993 525.127625,253.158829 
	C524.623169,246.978043 525.933533,240.523346 524.689514,234.556534 
	C522.506165,224.083908 523.383789,213.766144 524.015259,203.353806 
z"/>
<path fill="#12ACDB" opacity="1.000000" stroke="none" 
	d="
M294.472107,397.897217 
	C292.672424,377.176331 291.336945,356.520050 290.001801,335.449646 
	C306.643768,336.430481 321.407532,342.815460 335.160736,351.946747 
	C352.399750,363.392365 362.660278,380.773743 374.913696,397.961853 
	C347.581879,397.961853 321.259094,397.961853 294.472107,397.897217 
z"/>
<path fill="#21BCEC" opacity="1.000000" stroke="none" 
	d="
M424.005859,203.166733 
	C440.362946,203.117783 456.720001,203.068848 473.539490,203.525528 
	C474.136597,209.265839 474.129974,214.508896 474.440338,219.733139 
	C474.864685,226.874527 475.800385,233.993179 476.022522,241.136948 
	C476.288635,249.693893 476.033813,258.267029 476.004578,266.833130 
	C460.647614,266.878387 445.290680,266.923615 429.468048,266.467651 
	C428.668365,262.525055 428.184723,259.090424 428.028931,255.640976 
	C427.600250,246.148239 427.576019,236.629700 426.881317,227.158813 
	C426.292694,219.134308 424.991638,211.162094 424.005859,203.166733 
z"/>
<path fill="#25C1F1" opacity="1.000000" stroke="none" 
	d="
M476.468567,266.901398 
	C476.033813,258.267029 476.288635,249.693893 476.022522,241.136948 
	C475.800385,233.993179 474.864685,226.874527 474.440338,219.733139 
	C474.129974,214.508896 474.136597,209.265839 474.003296,203.599075 
	C490.369751,203.153381 506.734833,203.139771 523.557617,203.239990 
	C523.383789,213.766144 522.506165,224.083908 524.689514,234.556534 
	C525.933533,240.523346 524.623169,246.978043 525.127625,253.158829 
	C525.482849,257.511993 527.452332,261.769806 525.061401,266.466339 
	C508.982361,266.878326 492.957458,266.923981 476.468567,266.901398 
z"/>
<path fill="#1CB7E7" opacity="1.000000" stroke="none" 
	d="
M423.541809,203.093704 
	C424.991638,211.162094 426.292694,219.134308 426.881317,227.158813 
	C427.576019,236.629700 427.600250,246.148239 428.028931,255.640976 
	C428.184723,259.090424 428.668365,262.525055 429.004150,266.399872 
	C412.315582,266.878113 395.625275,266.922913 378.519592,266.549500 
	C378.452637,263.123352 378.929016,260.123688 379.121552,257.105865 
	C379.472443,251.606247 380.111328,246.071228 379.815460,240.595001 
	C379.140625,228.104691 377.973328,215.640976 377.006104,203.166458 
	C392.363342,203.117859 407.720551,203.069260 423.541809,203.093704 
z"/>
<path fill="#18B2E2" opacity="1.000000" stroke="none" 
	d="
M376.541992,203.093933 
	C377.973328,215.640976 379.140625,228.104691 379.815460,240.595001 
	C380.111328,246.071228 379.472443,251.606247 379.121552,257.105865 
	C378.929016,260.123688 378.452637,263.123352 378.055725,266.482239 
	C366.316284,266.877777 354.625397,266.922272 342.468536,266.442749 
	C341.382233,253.857483 340.733032,241.797607 340.151031,229.734512 
	C339.723846,220.880783 339.384796,212.022812 339.006470,203.166748 
	C351.363617,203.118301 363.720764,203.069855 376.541992,203.093933 
z"/>
<path fill="#13ADDC" opacity="1.000000" stroke="none" 
	d="
M338.542267,203.094589 
	C339.384796,212.022812 339.723846,220.880783 340.151031,229.734512 
	C340.733032,241.797607 341.382233,253.857483 342.004547,266.376160 
	C330.315765,266.877594 318.625031,266.921600 306.468384,266.450043 
	C305.670044,261.498199 305.150726,257.066681 305.038452,252.624878 
	C304.621796,236.140625 304.339172,219.653000 304.006195,203.166641 
	C315.363495,203.118576 326.720764,203.070511 338.542267,203.094589 
z"/>
<path fill="#0FA8D8" opacity="1.000000" stroke="none" 
	d="
M303.541901,203.095215 
	C304.339172,219.653000 304.621796,236.140625 305.038452,252.624878 
	C305.150726,257.066681 305.670044,261.498199 306.004333,266.383850 
	C296.314911,266.877502 286.623627,266.921783 276.468048,266.899658 
	C275.002991,245.900375 274.002228,224.967468 273.002625,203.600616 
	C283.028381,203.119034 293.052979,203.071411 303.541901,203.095215 
z"/>
</svg>